# xmcd CD database file
#
# Track frame offsets:
#	150
#	25936
#	47143
#	64193
#	88550
#	118491
#	158514
#	184650
#	223856
#	239991
#	263481
#	292558
#	323630
#
# Disc length: 4585 seconds
#
# Revision: 0
# Processed by: cddbd v1.5.2PL0 Copyright (c) Steve Scherf et al.
# Submitted via: CDex 1.51
#
DISCID=b711e70d
DTITLE=Tom Waits - This Is My America [CD2)
DYEAR=2008
DGENRE=Blues
TTITLE0=Lucky Day
TTITLE1=On The Nickel
TTITLE2=Lost In The Harbour
TTITLE3=Innocent When You Dream
TTITLE4=Hoist That Rag
TTITLE5=Make It Rain
TTITLE6=Dirt In The Ground
TTITLE7=Get Behind The Mule
TTITLE8=Hang Down Your Head
TTITLE9=Jesus Gonna Be Here
TTITLE10=Singapore
TTITLE11=Eyeball Kid
TTITLE12=Anywhere I Lay My Head
EXTD=YEAR: 2008
EXTT0=
EXTT1=
EXTT2=
EXTT3=
EXTT4=
EXTT5=
EXTT6=
EXTT7=
EXTT8=
EXTT9=
EXTT10=
EXTT11=
EXTT12=
PLAYORDER=
